HIERARCHY
ROOT hip
{
  OFFSET 0 0 0
  CHANNELS 6 Xposition Yposition Zposition Zrotation Yrotation Xrotation
  JOINT abdomen
  {
    OFFSET 0 20.6881 -0.73152
    CHANNELS 3 Zrotation Xrotation Yrotation
    JOINT chest
    {
      OFFSET 0 11.7043 -0.48768
      CHANNELS 3 Zrotation Xrotation Yrotation
      JOINT neck
      {
        OFFSET 0 22.1894 -2.19456
        CHANNELS 3 Zrotation Xrotation Yrotation
        JOINT head
        {
          OFFSET -0.24384 7.07133 1.2192
          CHANNELS 3 Zrotation Xrotation Yrotation
          JOINT leftEye
          {
            OFFSET 4.14528 8.04674 8.04672
            CHANNELS 3 Zrotation Xrotation Yrotation
            End Site
            {
              OFFSET 1 0 0
            }
          }
          JOINT rightEye
          {
            OFFSET -3.6576 8.04674 8.04672
            CHANNELS 3 Zrotation Xrotation Yrotation
            End Site
            {
              OFFSET 1 0 0
            }
          }
        }
      }
      JOINT rCollar
      {
        OFFSET -2.68224 19.2634 -4.8768
        CHANNELS 3 Zrotation Xrotation Yrotation
        JOINT rShldr
        {
          OFFSET -8.77824 -1.95073 1.46304
          CHANNELS 3 Zrotation Xrotation Yrotation
          JOINT rForeArm
          {
            OFFSET -28.1742 -1.7115 0.48768
            CHANNELS 3 Zrotation Xrotation Yrotation
            JOINT rHand
            {
              OFFSET -22.5879 0.773209 7.07136
              CHANNELS 3 Zrotation Xrotation Yrotation
              JOINT rThumb1
              {
                OFFSET -1.2192 -0.487915 3.41376
                CHANNELS 3 Zrotation Xrotation Yrotation
                JOINT rThumb2
                {
                  OFFSET -3.37035 -0.52449 3.41376
                  CHANNELS 3 Zrotation Xrotation Yrotation
                  End Site
                  {
                    OFFSET -1.78271 -1.18214 1.43049
                  }
                }
              }
              JOINT rIndex1
              {
                OFFSET -7.75947 0.938293 5.60832
                CHANNELS 3 Zrotation Xrotation Yrotation
                JOINT rIndex2
                {
                  OFFSET -2.54057 -0.884171 1.56538
                  CHANNELS 3 Zrotation Xrotation Yrotation
                  End Site
                  {
                    OFFSET -1.62519 -0.234802 1.16502
                  }
                }
              }
              JOINT rMid1
              {
                OFFSET -8.24714 1.18213 3.41376
                CHANNELS 3 Zrotation Xrotation Yrotation
                JOINT rMid2
                {
                  OFFSET -3.10165 -0.590103 1.0647
                  CHANNELS 3 Zrotation Xrotation Yrotation
                  End Site
                  {
                    OFFSET -2.48547 -0.328903 0.83742
                  }
                }
              }
              JOINT rRing1
              {
                OFFSET -8.82822 0.546677 1.51678
                CHANNELS 3 Zrotation Xrotation Yrotation
                JOINT rRing2
                {
                  OFFSET -2.60934 -0.819778 -0.0198488
                  CHANNELS 3 Zrotation Xrotation Yrotation
                  End Site
                  {
                    OFFSET -2.33842 -0.294052 0.168128
                  }
                }
              }
              JOINT rPinky1
              {
                OFFSET -8.27202 -0.0477905 -0.4584
                CHANNELS 3 Zrotation Xrotation Yrotation
                JOINT rPinky2
                {
                  OFFSET -1.82734 -0.647385 -0.700984
                  CHANNELS 3 Zrotation Xrotation Yrotation
                  End Site
                  {
                    OFFSET -1.69225 -0.51767 -0.607171
                  }
                }
              }
            }
          }
        }
      }
      JOINT lCollar
      {
        OFFSET 2.68224 19.2634 -4.8768
        CHANNELS 3 Zrotation Xrotation Yrotation
        JOINT lShldr
        {
          OFFSET 8.77824 -1.95073 1.46304
          CHANNELS 3 Zrotation Xrotation Yrotation
          JOINT lForeArm
          {
            OFFSET 28.1742 -1.7115 0.48768
            CHANNELS 3 Zrotation Xrotation Yrotation
            JOINT lHand
            {
              OFFSET 22.5879 0.773209 7.07136
              CHANNELS 3 Zrotation Xrotation Yrotation
              JOINT lThumb1
              {
                OFFSET 1.2192 -0.487915 3.41376
                CHANNELS 3 Zrotation Xrotation Yrotation
                JOINT lThumb2
                {
                  OFFSET 3.37035 -0.52449 3.41376
                  CHANNELS 3 Zrotation Xrotation Yrotation
                  End Site
                  {
                    OFFSET 1.78271 -1.18214 1.43049
                  }
                }
              }
              JOINT lIndex1
              {
                OFFSET 7.75947 0.938293 5.60832
                CHANNELS 3 Zrotation Xrotation Yrotation
                JOINT lIndex2
                {
                  OFFSET 2.54057 -0.884171 1.56538
                  CHANNELS 3 Zrotation Xrotation Yrotation
                  End Site
                  {
                    OFFSET 1.62519 -0.234802 1.16502
                  }
                }
              }
              JOINT lMid1
              {
                OFFSET 8.24714 1.18213 3.41376
                CHANNELS 3 Zrotation Xrotation Yrotation
                JOINT lMid2
                {
                  OFFSET 3.10165 -0.590103 1.0647
                  CHANNELS 3 Zrotation Xrotation Yrotation
                  End Site
                  {
                    OFFSET 2.48547 -0.328903 0.83742
                  }
                }
              }
              JOINT lRing1
              {
                OFFSET 8.82822 0.546677 1.51678
                CHANNELS 3 Zrotation Xrotation Yrotation
                JOINT lRing2
                {
                  OFFSET 2.60934 -0.819778 -0.0198488
                  CHANNELS 3 Zrotation Xrotation Yrotation
                  End Site
                  {
                    OFFSET 2.33842 -0.294052 0.168128
                  }
                }
              }
              JOINT lPinky1
              {
                OFFSET 8.27202 -0.0477905 -0.4584
                CHANNELS 3 Zrotation Xrotation Yrotation
                JOINT lPinky2
                {
                  OFFSET 1.82734 -0.647385 -0.700984
                  CHANNELS 3 Zrotation Xrotation Yrotation
                  End Site
                  {
                    OFFSET 1.69225 -0.51767 -0.607171
                  }
                }
              }
            }
          }
        }
      }
    }
  }
  JOINT rButtock
  {
    OFFSET -8.77824 4.35084 1.2192
    CHANNELS 3 Zrotation Xrotation Yrotation
    JOINT rThigh
    {
      OFFSET 0 -1.70687 -2.19456
      CHANNELS 3 Zrotation Xrotation Yrotation
      JOINT rShin
      {
        OFFSET 0 -36.8199 0.73152
        CHANNELS 3 Zrotation Xrotation Yrotation
        JOINT rFoot
        {
          OFFSET 0.73152 -45.1104 -5.12064
          CHANNELS 3 Zrotation Xrotation Yrotation
          End Site
          {
            OFFSET -1.1221 -3.69964 12.103
          }
        }
      }
    }
  }
  JOINT lButtock
  {
    OFFSET 8.77824 4.35084 1.2192
    CHANNELS 3 Zrotation Xrotation Yrotation
    JOINT lThigh
    {
      OFFSET 0 -1.70687 -2.19456
      CHANNELS 3 Zrotation Xrotation Yrotation
      JOINT lShin
      {
        OFFSET 0 -36.8199 0.73152
        CHANNELS 3 Zrotation Xrotation Yrotation
        JOINT lFoot
        {
          OFFSET -0.73152 -45.1104 -5.12064
          CHANNELS 3 Zrotation Xrotation Yrotation
          End Site
          {
            OFFSET 1.1221 -3.69964 12.103
          }
        }
      }
    }
  }
}
MOTION
Frames:	6
Frame Time:	0.03333
-7.9312 44.8251 -6.1297 -0.845592 -29.263944 11.231459 -2.901717 13.380676 -155.191713 -1.484773 11.370184 144.937714 -10.366803 25.306758 -56.816752 37.575612 -8.575386 14.050912 -0.562732 0.082704 -16.721583 14.06019 -1.898696 -15.306496 -160.920988 -29.393473 168.679513 -67.69048 -64.850448 -49.790468 -0.208877 18.667709 -145.034225 179.264822 -15.50528 143.966657 -166.516778 -7.079078 97.319653 -35.01094 -28.57512 -10.20453 -153.615151 -21.973237 115.813002 -99.161595 54.94876 76.200476 -156.025685 -9.675979 139.092533 -37.762242 52.442172 34.734162 -74.667803 73.825928 101.580413 13.594128 -0.375333 -10.77107 -142.276233 28.277825 -150.41354 -143.675307 27.724456 -153.833442 85.15437 67.466217 -86.7258 -106.702718 -18.086008 -116.472605 -179.064848 -30.870615 -35.834386 -177.336281 -7.173141 -145.358529 8.355644 6.797391 -2.333385 -14.256846 -18.481777 -4.977776 157.444269 -30.184447 -123.304559 163.391929 -38.172971 -116.130727 10.243657 19.625496 -9.339109 149.3657 23.956383 -147.794159 -7.925 27.929043 0.248073 34.868683 60.641813 -18.298785 168.326943 15.567326 127.803842 -170.677474 4.549531 137.246147 160.977156 70.216159 11.753705 157.04771 -15.628598 -88.925364 -108.672185 -3.609181 -73.783873 -89.579463 34.233233 -161.016438 -172.748976 71.128634 -0.0 -138.538346 -1.131692 -180.0 -152.981947 -70.714366 99.153025 2.621185 -59.637076 -62.5774
-7.7769 45.4229 -6.3322 -0.56923 -29.67485 11.515037 -3.470248 13.880102 -165.813539 -4.003779 11.314432 156.053436 -6.517307 20.712984 -23.047594 21.600149 -25.803164 -18.824047 2.145619 -0.303172 -16.083274 13.1308 -1.843674 -15.917342 -160.751643 -47.317769 172.979239 85.57905 68.986291 -97.522582 -0.937266 14.921078 114.42525 -9.708457 6.318156 -1.22473 -9.63863 14.556453 -3.466419 -127.299257 -28.257834 93.502256 4.375417 -3.896033 3.865019 98.160707 -60.521738 41.56781 92.108851 -76.220297 57.091182 -13.391913 24.706765 8.595965 7.045692 11.864424 1.708584 7.388789 6.679218 -6.804113 -139.02374 14.410014 -147.194682 -137.464511 71.02957 -174.763524 143.966087 39.127104 -146.376998 -120.174255 -19.155095 -159.451944 -175.216437 -15.481325 -35.68237 -179.086773 -2.249002 -145.179064 16.46211 13.178386 -4.54888 30.640055 8.82342 -35.337575 157.133789 -27.939064 -123.440266 126.010977 34.50901 -108.823452 13.377717 24.513398 -11.730286 161.371194 -53.079148 -154.549249 -8.129519 14.082191 4.993344 97.084252 70.078643 -83.244106 -7.501068 43.531385 8.330783 137.254624 -50.321458 167.713112 -0.137734 5.27296 1.498388 -102.417117 -61.554603 172.513962 -108.202783 -13.93883 -65.601844 -81.876923 47.145973 -166.519884 10.633665 4.66371 2.704195 66.950417 -49.004814 61.449869 -151.819635 79.726694 112.17736 141.335454 27.856756 -35.087152
-7.9172 45.6887 -6.5377 -0.306946 -28.308812 10.66285 -4.683485 14.383318 160.971467 -10.833555 6.708595 -170.495061 5.597331 36.833406 160.120821 -14.311111 48.132545 155.605812 -0.753072 0.157646 -23.646577 9.661996 -1.424923 -16.740316 -85.208401 70.843486 85.3496 89.061963 -44.345174 87.829319 177.145806 44.298516 34.817876 -178.470948 -4.872497 143.595815 93.824186 -56.775206 40.905544 -9.768141 -23.527544 -25.34449 -87.539089 34.420341 75.528248 -159.445574 -7.574388 113.817114 -35.671962 48.884707 37.325549 -86.886206 68.251337 82.452052 -72.538188 -70.642412 -93.45301 5.666279 -3.566216 -3.198642 -126.876421 -15.658594 -136.622647 4.309222 14.183226 16.915716 160.28191 -65.833799 -173.288005 72.473239 -28.65628 89.999332 111.022053 23.094182 61.248415 -42.363805 -68.083217 -29.257099 -5.97854 -12.002321 -0.780041 121.66887 -17.981413 -108.309503 -9.76478 -19.284718 5.201786 175.825481 -22.940895 -102.667951 1.133093 -0.434415 -4.164348 164.211386 -37.728002 -155.377798 -10.926447 24.863261 -1.131482 24.147268 33.166871 -2.496741 -67.538854 71.943082 45.312339 -3.491453 -52.835294 -26.786245 176.369446 68.609229 2.80163 152.525206 -18.133096 -59.099429 -96.658725 27.768736 152.108612 -29.745764 13.653769 -46.231512 27.419119 6.061967 13.657936 37.548923 -59.755636 117.883849 110.274659 22.897665 121.353602 1.563408 39.755516 149.967865
-8.1736 45.9747 -6.6805 0.095821 -28.285477 10.277894 -4.565853 18.81043 1.294597 7.416868 -14.556822 -10.081403 -10.285258 33.701329 -106.631768 43.11136 21.109863 50.156954 -1.91468 0.431855 -25.418506 5.817484 -1.009847 -19.6794 -4.262302 -61.995199 -19.022776 50.717618 35.416142 -26.226028 93.663159 43.729633 76.570834 -130.145017 62.159421 106.665729 -176.638774 -15.330418 94.328784 -35.916962 -25.860945 -8.731412 -165.745585 -38.991837 113.702674 84.350906 -66.11659 33.422175 16.92972 -23.089226 1.599547 -92.275227 65.828442 78.929545 -73.627863 -71.251153 -96.156054 -132.265894 72.02362 142.187109 -124.674437 -17.803164 -139.98381 -79.256037 -72.492206 -77.925984 6.964705 25.219344 -8.763851 -63.725804 4.20618 -53.664138 96.184485 -37.67072 -79.559658 -95.071887 -74.14603 -79.022061 14.923269 6.861111 -3.33251 -87.470485 -66.462612 -19.408862 0.939574 0.263455 -0.769142 93.182749 45.598685 -62.478146 170.74299 -27.958259 -140.683156 2.938853 -4.061149 -6.458916 33.338453 -64.70136 58.337007 162.431646 -25.114109 -147.905442 -56.968529 67.621672 33.78512 -1.977399 -63.135441 -19.360862 174.802611 68.803364 5.57224 152.175562 -19.00286 96.307464 95.202183 -1.113208 -43.796037 -0.134658 -23.104434 -42.61813 -173.339929 71.698882 -0.0 -139.386723 3.278493 -1.834144 -169.478593 74.022668 39.829799 -102.156618 51.854244 -159.109552
-8.465300000000001 46.2543 -6.798800000000001 0.35572 -28.364533 10.213217 -5.875597 13.977852 157.316333 -11.711855 5.664 -166.453436 -2.636718 18.862418 -0.027079 2.186413 -31.169532 -49.469682 -3.25377 0.795509 -27.470604 3.672519 -0.64684 -19.97159 -159.214972 -30.460587 170.334813 150.958727 41.204148 -161.165495 -177.544965 15.395549 31.582881 179.965078 -11.194942 143.734745 -95.704448 42.775519 55.082085 -144.441289 -17.788533 71.144071 -6.09142 9.545259 11.53364 137.861355 -63.258259 77.434435 -143.377698 15.071315 134.675587 -0.325044 21.388066 6.246409 -138.840477 -0.052511 -177.953807 -151.937223 -26.0048 176.583537 -12.505793 -51.664477 -21.841474 92.949604 83.5225 -77.154959 161.284721 -47.067195 -167.866615 -172.920533 -1.882514 127.344458 -178.276192 29.09416 -38.065859 -176.819777 -8.369823 -145.17052 -2.518387 -9.511691 -1.193671 -29.54989 -41.406114 11.010953 -5.337614 -10.114574 2.08298 171.055041 -10.499998 -105.738393 158.75274 3.344561 -138.066988 168.052228 -6.651524 -135.046309 135.528506 -5.129719 174.633382 -39.993767 31.784979 7.053785 50.059817 -29.957028 44.748999 10.529441 -37.383458 48.684205 19.894839 7.697975 10.389595 -115.758327 -52.079795 156.938339 -103.323274 -28.133413 -174.868016 -17.60454 29.235145 -91.350099 1.948014 4.572173 -2.653724 75.99564 -42.61842 -0.0 -102.807628 20.286131 -5.125641 -2.918514 76.585546 106.875197
-8.7388 46.6198 -6.9012 0.502707 -29.073404 10.546835 -4.036227 13.935002 -149.375569 -0.506853 11.889255 139.588289 7.458541 21.852496 56.543367 -33.134535 -11.211576 -110.689251 -3.230053 0.780915 -27.176143 2.815117 -0.515028 -20.731347 -2.075597 -0.818668 -3.006438 -117.783008 19.025402 162.168646 5.944587 -1.176207 -146.100005 -179.328185 -9.706703 144.036582 7.996334 -10.05767 -6.494419 3.750242 2.466511 2.151742 2.939363 -1.060728 6.282476 -160.816591 -16.785138 114.556419 6.724488 1.198495 2.808179 90.411326 -81.946688 64.5034 -137.978745 1.214314 -177.438087 -149.175579 -43.495796 -178.46333 -119.63013 65.017253 178.024772 31.026323 14.31527 9.197139 81.034885 66.749374 -83.323799 -90.996822 -24.624697 -110.297141 -171.949406 -8.193868 -33.750721 -178.665436 -1.375564 -145.392356 8.784795 1.492077 -2.2176 169.748166 -61.87608 -98.985944 -177.696494 -59.173284 -115.525935 172.181899 -45.617561 -106.450742 40.874706 49.391656 -32.682125 50.59363 61.740328 -53.848024 -8.479422 11.908513 -0.781285 17.86983 25.60814 -3.006561 -17.231387 39.405574 11.724173 138.445913 -53.078858 157.795659 156.346741 68.472824 18.217043 161.021632 -16.936963 -121.95116 -106.288114 -43.001244 -5.978152 163.63974 24.057138 -68.743446 171.225404 70.261316 9.31303 -134.502818 -1.903061 -180.0 -154.775802 -69.258292 -171.092337 170.978466 5.609201 140.009046
